<svg width="167" height="36" viewBox="0 0 167 36" fill="none" xmlns="http://www.w3.org/2000/svg">
<path d="M51.1228 10.077H39.7517L39.2844 12.6684H43.369L41.2664 24.4858H44.4481L46.5506 12.6684H50.6797L51.1228 10.077Z" fill="black"/>
<path d="M57.7921 13.8646C57.0306 13.8569 56.2787 14.0311 55.6005 14.3723C55.2632 14.5422 54.9466 14.7493 54.6568 14.9895L55.5208 10.077H52.3392L49.7805 24.4858H52.9603L53.9022 19.1898C54.0616 18.3644 54.3954 17.716 54.8904 17.2631C55.3358 16.8327 55.9351 16.5919 56.5591 16.5929C57.1969 16.5929 57.6104 16.7646 57.8199 17.1152C58.0479 17.4987 58.0961 18.0813 57.9626 18.8446L56.9373 24.484H60.1189L61.185 18.7132C61.4502 17.1664 61.2889 15.9629 60.703 15.1374C60.1171 14.312 59.1196 13.8646 57.7921 13.8646Z" fill="black"/>
<path d="M70.3015 14.1019L69.3578 19.4764C69.2526 20.1834 68.9122 20.836 68.39 21.3319C67.933 21.7619 67.3236 21.9992 66.6916 21.9929C65.683 21.9929 65.2343 21.5382 65.2343 20.5174C65.2343 20.4078 65.2343 20.2891 65.2529 20.1521C65.2714 20.0152 65.2844 19.88 65.3103 19.7321L66.3134 14.0946H63.1614L62.112 19.8745C62.0346 20.3014 61.9931 20.7339 61.9878 21.1675C61.9878 22.2961 62.2993 23.1763 62.9148 23.7954C63.5304 24.4145 64.4148 24.7231 65.5347 24.7231C66.3186 24.7298 67.0916 24.5413 67.7818 24.1753C68.1725 23.9683 68.533 23.7103 68.8535 23.4083L68.7997 24.4784H71.6383L73.4924 14.0946L70.3015 14.1019Z" fill="black"/>
<path d="M80.8385 13.8646C80.0539 13.8572 79.2801 14.0457 78.5894 14.4124C78.1934 14.6197 77.8274 14.8783 77.5011 15.1813L77.5419 14.102H74.7088L72.8547 24.4858H76.0345L77.0005 19.1113C77.1065 18.4046 77.4467 17.7522 77.9683 17.2559C78.4187 16.8283 79.0208 16.5911 79.6463 16.5948C80.6679 16.5948 81.1296 17.0495 81.1296 18.0703C81.1287 18.1846 81.12 18.2987 81.1036 18.4118C81.0814 18.5561 81.0647 18.7095 81.0535 18.8465L80.0282 24.4858H83.2117L84.2574 18.7132C84.3359 18.2864 84.3775 17.8539 84.3816 17.4202C84.3816 16.2898 84.0646 15.4114 83.4416 14.7905C82.8186 14.1696 81.9398 13.8646 80.8385 13.8646Z" fill="black"/>
<path d="M94.9294 10.077L94.058 14.9913C93.8192 14.7405 93.5451 14.5246 93.244 14.3503C92.6878 14.0271 91.9666 13.8646 91.084 13.8646C90.027 13.8547 88.9889 14.1416 88.0915 14.6918C87.1973 15.2394 86.4636 16.0074 85.963 16.9198C85.4317 17.8929 85.1617 18.9836 85.1787 20.0883C85.1664 20.8949 85.3407 21.6937 85.6886 22.424C86.0127 23.1318 86.5434 23.7286 87.213 24.1384C87.8826 24.5481 88.6609 24.7524 89.4487 24.725C90.2314 24.7469 91.0058 24.5628 91.6922 24.1918C92.0382 23.9934 92.3641 23.7628 92.6656 23.5033L92.6971 24.4913H95.5301L98.111 10.0807L94.9294 10.077ZM92.9974 20.3038C92.7497 20.7794 92.3836 21.1853 91.9332 21.4835C91.49 21.777 90.9652 21.9276 90.4314 21.9145C89.7991 21.9145 89.3189 21.7319 88.9722 21.321C88.6028 20.8953 88.4096 20.3484 88.4308 19.7888C88.42 19.2332 88.5507 18.6839 88.8109 18.1909C89.0563 17.7385 89.4166 17.3566 89.8566 17.0824C90.3118 16.8071 90.8374 16.6658 91.3714 16.6751C92.0111 16.6751 92.4968 16.8577 92.8547 17.223C93.0378 17.4171 93.1796 17.6455 93.2716 17.8945C93.3637 18.1436 93.4041 18.4083 93.3905 18.673C93.3933 19.2389 93.2572 19.7972 92.9937 20.3001L92.9974 20.3038Z" fill="black"/>
<path d="M107.823 15.9026C107.455 15.266 106.911 14.7463 106.253 14.4051C105.509 14.0261 104.68 13.8377 103.842 13.8572C102.946 13.8502 102.058 14.0261 101.234 14.374C100.468 14.6955 99.775 15.1643 99.1956 15.7529C98.6161 16.3415 98.1618 17.0381 97.8592 17.8018C97.5478 18.5842 97.3905 19.4178 97.3956 20.2581C97.3956 21.6113 97.8221 22.7088 98.662 23.5105C99.5019 24.3123 100.625 24.7213 102.025 24.7213C102.827 24.7277 103.622 24.5729 104.361 24.2666C105.77 23.6697 106.916 22.5964 107.591 21.2406L107.651 21.1146H104.319C104.112 21.3679 103.861 21.583 103.577 21.7501C103.213 21.9571 102.798 22.0608 102.378 22.0496C102.132 22.0609 101.886 22.0243 101.654 21.9418C101.423 21.8594 101.21 21.7328 101.028 21.5693C100.687 21.2515 100.523 20.8205 100.523 20.2398V20.2033H107.992L108.06 19.9933C108.154 19.6941 108.227 19.389 108.279 19.0802C108.34 18.7418 108.372 18.3992 108.376 18.0557C108.387 17.3026 108.196 16.5598 107.823 15.9026ZM101.017 18.0283C101.216 17.6059 101.532 17.2471 101.929 16.9928C102.394 16.6827 102.942 16.5156 103.503 16.5125C103.969 16.4868 104.427 16.6444 104.775 16.9508C104.925 17.0871 105.042 17.2544 105.119 17.4407C105.196 17.6269 105.229 17.8276 105.218 18.0283H101.017Z" fill="black"/>
<path d="M114.344 14.4526C113.89 14.6956 113.472 14.9972 113.1 15.3492L113.155 14.1019H110.278L108.424 24.4857H111.616L112.503 19.6025C112.673 18.6547 113.031 18.0009 113.569 17.6612C114.182 17.2932 114.89 17.108 115.608 17.1279H116.563L117.153 13.8645H116.782C115.932 13.8559 115.093 14.0582 114.344 14.4526Z" fill="black"/>
<path d="M123.306 13.4811C124.029 12.9803 124.893 12.7169 125.776 12.7287C126.618 12.7287 127.259 12.9113 127.699 13.2765C128.138 13.6418 128.351 14.1549 128.376 14.8361L128.385 15.1265H131.826V14.8324C131.813 13.2656 131.299 12.0274 130.302 11.149C129.304 10.2706 127.932 9.84143 126.177 9.84143C125.013 9.83056 123.861 10.0647 122.797 10.5281C121.774 10.9801 120.854 11.6311 120.093 12.4419C119.315 13.28 118.706 14.2569 118.3 15.32C117.868 16.4579 117.651 17.6643 117.661 18.8793C117.639 19.9329 117.882 20.9755 118.367 21.9145C118.834 22.7864 119.551 23.504 120.429 23.9781C121.321 24.4693 122.404 24.7086 123.653 24.7086C125.374 24.7086 126.89 24.2904 128.157 23.4649C129.436 22.6275 130.402 21.4014 130.908 19.9732L131.058 19.5715H127.576L127.499 19.7541C127.244 20.3848 126.798 20.9226 126.221 21.2936C125.574 21.6777 124.827 21.868 124.072 21.8414C123.056 21.8414 122.292 21.5657 121.74 20.9977C121.187 20.4298 120.913 19.6244 120.913 18.5908C120.896 17.5462 121.119 16.5113 121.564 15.5629C121.954 14.7335 122.554 14.0167 123.306 13.4811Z" fill="black"/>
<path d="M140.726 14.4563C139.971 14.051 139.123 13.847 138.264 13.8646C137.427 13.8594 136.597 14.0183 135.824 14.3321C135.077 14.6367 134.4 15.0849 133.832 15.6506C133.263 16.2191 132.812 16.8915 132.505 17.6302C132.185 18.4023 132.024 19.229 132.03 20.0627C132.015 20.8944 132.219 21.7158 132.62 22.4477C133.006 23.1369 133.573 23.711 134.262 24.1096C135.004 24.5278 135.848 24.7399 136.702 24.7232C137.55 24.7291 138.391 24.5664 139.174 24.2447C139.923 23.9368 140.603 23.4856 141.174 22.9171C141.76 22.333 142.222 21.6407 142.534 20.8801C142.847 20.1194 143.003 19.3054 142.995 18.4849C143.013 17.6474 142.806 16.8201 142.394 16.0871C142 15.4036 141.423 14.8396 140.726 14.4563ZM137.042 21.9437C136.808 21.9481 136.575 21.9054 136.359 21.8181C136.142 21.7308 135.946 21.6007 135.783 21.436C135.432 21.0982 135.264 20.6197 135.264 19.9751C135.254 19.3832 135.381 18.7969 135.634 18.2602C135.855 17.7899 136.196 17.3845 136.624 17.0842C137.022 16.8073 137.497 16.6604 137.984 16.6641C138.217 16.6593 138.449 16.7014 138.665 16.7877C138.882 16.8741 139.078 17.0029 139.242 17.1664C139.593 17.506 139.763 17.9845 139.763 18.6273C139.772 19.2191 139.646 19.8053 139.393 20.3421C139.172 20.8106 138.833 21.2155 138.408 21.5182C138.008 21.7994 137.526 21.9454 137.034 21.9346L137.042 21.9437Z" fill="black"/>
<path d="M151.34 13.8645C150.49 13.8559 149.652 14.0582 148.902 14.4526C148.448 14.6955 148.029 14.997 147.656 15.3492L147.714 14.1019H144.836L142.982 24.4857H146.162L147.048 19.6025C147.219 18.6547 147.576 18.0009 148.114 17.6612C148.727 17.2932 149.436 17.108 150.154 17.1279H151.108L151.698 13.8645H151.34Z" fill="black"/>
<path d="M161.808 15.9026C161.441 15.2662 160.897 14.7466 160.24 14.4051C159.496 14.0268 158.667 13.8384 157.83 13.8572C156.932 13.8466 156.041 14.0201 155.215 14.3668C154.449 14.6878 153.756 15.1564 153.176 15.745C152.596 16.3337 152.142 17.0305 151.839 17.7945C151.529 18.5773 151.372 19.4107 151.377 20.2508C151.377 21.604 151.802 22.7016 152.642 23.5033C153.482 24.305 154.607 24.714 156.005 24.714C156.807 24.7205 157.602 24.5658 158.341 24.2593C159.75 23.6624 160.895 22.5891 161.571 21.2333L161.632 21.1073H158.295C158.088 21.3606 157.837 21.5758 157.553 21.7428C157.19 21.9496 156.775 22.0532 156.356 22.0423C156.109 22.0537 155.863 22.0172 155.631 21.9348C155.399 21.8524 155.186 21.7257 155.004 21.562C154.665 21.2442 154.5 20.8133 154.5 20.2325V20.196H161.97L162.036 19.986C162.131 19.687 162.204 19.3819 162.255 19.0729C162.317 18.7347 162.349 18.392 162.352 18.0484C162.366 17.2985 162.178 16.5583 161.808 15.9026ZM155.002 18.0283C155.202 17.6059 155.518 17.2472 155.914 16.9928C156.38 16.6827 156.928 16.5156 157.49 16.5125C157.721 16.4997 157.952 16.5317 158.17 16.6069C158.388 16.6822 158.588 16.799 158.76 16.9508C158.911 17.087 159.028 17.2542 159.105 17.4405C159.182 17.6268 159.216 17.8275 159.205 18.0283H155.002Z" fill="black"/>
<path d="M162.802 13.7969H162.359V13.6399H163.438V13.7969H162.993V15.0753H162.808L162.802 13.7969Z" fill="black"/>
<path d="M164.829 14.4453C164.818 14.2444 164.805 14.0033 164.807 13.8243C164.757 13.9924 164.695 14.1713 164.621 14.3722L164.364 15.068H164.221L163.985 14.385C163.915 14.1823 163.857 13.996 163.817 13.8262C163.817 14.0088 163.802 14.2462 163.789 14.4617L163.75 15.0771H163.564L163.666 13.6417H163.902L164.15 14.3357C164.21 14.5183 164.26 14.6699 164.297 14.8196C164.339 14.6558 164.39 14.4943 164.449 14.3357L164.708 13.6417H164.949L165.04 15.0771H164.855L164.829 14.4453Z" fill="black"/>
<path fill-rule="evenodd" clip-rule="evenodd" d="M8.98518 17.2314C8.98837 17.1159 9.02288 17.0034 9.08515 16.9056L17.4675 3.60533C17.4927 3.56631 17.5066 3.5213 17.5078 3.47509C17.5091 3.42888 17.4976 3.3832 17.4746 3.34292C17.4515 3.30264 17.4179 3.26926 17.3771 3.24632C17.3364 3.22339 17.2901 3.21177 17.2432 3.2127C14.0859 3.31 11.043 4.39886 8.5586 6.3203C6.07421 8.24174 4.2785 10.8951 3.43367 13.893C2.58883 16.8909 2.73912 20.0763 3.86259 22.9842C4.98605 25.892 7.02386 28.3699 9.67846 30.0561C9.70786 30.0758 9.74102 30.0893 9.77592 30.0959C9.81082 30.1025 9.84672 30.102 9.88142 30.0945C9.91612 30.087 9.94891 30.0726 9.97777 30.0522C10.0066 30.0317 10.031 30.0057 10.0493 29.9757L17.4137 18.3702C17.4435 18.3232 17.46 18.2693 17.4614 18.2139C17.4629 18.1586 17.4493 18.1039 17.4221 18.0554C17.3948 18.007 17.3549 17.9666 17.3065 17.9385C17.2581 17.9103 17.203 17.8955 17.1467 17.8954H9.64138C9.52414 17.8954 9.40903 17.8645 9.30803 17.8059C9.20703 17.7472 9.12381 17.663 9.06704 17.562C9.01026 17.461 8.982 17.3468 8.98518 17.2314ZM27.8503 27.744C30.4787 25.0304 31.9451 21.424 31.9452 17.6735C31.9465 15.2881 31.3533 12.9388 30.2177 10.8318C29.082 8.72492 27.4386 6.9248 25.4318 5.58949C25.4026 5.56968 25.3696 5.55591 25.3349 5.54904C25.3001 5.54216 25.2643 5.54231 25.2296 5.54949C25.195 5.55666 25.1621 5.57071 25.1331 5.59077C25.1041 5.61083 25.0796 5.63649 25.0609 5.66619L17.8059 17.0982C17.776 17.1449 17.7595 17.1986 17.7579 17.2538C17.7563 17.3089 17.7697 17.3635 17.7968 17.4118C17.8238 17.4601 17.8636 17.5003 17.9118 17.5284C17.96 17.5564 18.015 17.5712 18.071 17.5712H25.5745C25.6918 17.5716 25.8069 17.6028 25.9078 17.6617C26.0087 17.7205 26.0918 17.8049 26.1485 17.906C26.2053 18.0071 26.2335 18.1213 26.2304 18.2368C26.2273 18.3523 26.1929 18.4649 26.1308 18.5629L17.6446 31.9343C17.6246 31.966 17.6138 32.0023 17.6133 32.0395C17.6128 32.0768 17.6226 32.1134 17.6417 32.1455C17.6608 32.1777 17.6884 32.2041 17.7216 32.2219C17.7547 32.2397 17.7922 32.2482 17.83 32.2466C21.6335 32.0701 25.2219 30.4577 27.8503 27.744Z" fill="url(#paint0_linear_196_1759)"/>
<defs>
<linearGradient id="paint0_linear_196_1759" x1="15.4341" y1="9.20469" x2="20.5393" y2="31.1333" gradientUnits="userSpaceOnUse">
<stop offset="0.18" stop-color="#00FFD5"/>
<stop offset="0.23" stop-color="#00F7D5"/>
<stop offset="0.31" stop-color="#00E3D5"/>
<stop offset="0.4" stop-color="#00C3D5"/>
<stop offset="0.51" stop-color="#0096D5"/>
<stop offset="0.62" stop-color="#005CD5"/>
<stop offset="0.74" stop-color="#0016D5"/>
<stop offset="0.78" stop-color="#0000D5"/>
</linearGradient>
</defs>
</svg>
