<svg width="150" height="33" viewBox="0 0 150 33" fill="none" xmlns="http://www.w3.org/2000/svg">
<path d="M45.9188 9.23706H35.7052L35.2855 11.6125H38.9543L37.0658 22.4451H39.9235L41.812 11.6125H45.5208L45.9188 9.23706Z" fill="white"/>
<path d="M51.909 12.7092C51.1963 12.7092 50.5335 12.8649 49.9389 13.1729C49.6308 13.3319 49.3477 13.5228 49.0913 13.7387L49.8673 9.2356H47.0096L44.7097 22.4436H47.5675L48.4118 17.5906H48.4151C48.56 16.834 48.8581 16.2397 49.3044 15.8229C49.7474 15.4094 50.2404 15.2085 50.8099 15.2085C51.3795 15.2085 51.7525 15.3659 51.9423 15.6873C52.1472 16.0388 52.1905 16.5728 52.0706 17.2726L51.1496 22.442H54.0074L54.9483 17.1504C55.1881 15.7325 55.0416 14.631 54.5153 13.8726C53.9774 13.0992 53.0998 12.7058 51.9074 12.7058L51.909 12.7092Z" fill="white"/>
<path d="M63.1452 12.9268L62.2975 17.8534C62.166 18.5732 61.8729 19.1458 61.4282 19.5542C60.9836 19.961 60.4856 20.1602 59.9028 20.1602C58.9968 20.1602 58.5921 19.7434 58.5921 18.8076C58.5921 18.7072 58.5971 18.5983 58.6088 18.4812C58.6204 18.3606 58.6371 18.2317 58.6587 18.0961L59.5614 12.9284H56.7219L55.781 18.22C55.7061 18.6569 55.6694 19.0554 55.6694 19.4052C55.6694 20.4398 55.9509 21.25 56.5038 21.8141C57.06 22.3783 57.851 22.6645 58.8569 22.6645C59.5947 22.6645 60.2741 22.4988 60.8753 22.1707C61.23 21.9765 61.5515 21.7422 61.8379 21.4676L61.7896 22.4486H64.3393L66.0013 12.9301H63.1435L63.1452 12.9268Z" fill="white"/>
<path d="M72.6045 12.709C71.8667 12.709 71.1872 12.8747 70.5844 13.2028C70.2247 13.3987 69.8999 13.6364 69.6135 13.916L69.6485 12.9266H67.1021L65.4418 22.4451H68.2995L69.1672 17.5185C69.3004 16.7986 69.5918 16.2261 70.0365 15.8176C70.4795 15.4109 70.9724 15.2116 71.542 15.2116C72.4596 15.2116 72.8692 15.6285 72.8692 16.5643C72.8692 16.6614 72.8609 16.7668 72.8459 16.8773C72.8276 17.0079 72.811 17.1502 72.8026 17.274L71.8817 22.4434H74.7394L75.6804 17.1518C75.7553 16.7166 75.7919 16.3182 75.7919 15.9666C75.7919 14.9321 75.5072 14.1219 74.9476 13.5577C74.3864 12.9952 73.5987 12.709 72.6045 12.709Z" fill="white"/>
<path d="M85.2628 9.23727L84.4851 13.7421C84.2769 13.5161 84.0371 13.3252 83.7523 13.1545C83.2544 12.8582 82.6049 12.7092 81.8122 12.7092C80.8346 12.7092 79.927 12.962 79.1243 13.4675C78.3266 13.9614 77.6821 14.6544 77.2125 15.5098C76.7429 16.3669 76.5081 17.3446 76.5081 18.4092C76.5081 19.1944 76.6613 19.9142 76.9677 20.5503C77.2741 21.1982 77.7154 21.7154 78.285 22.0887C78.8529 22.4671 79.5473 22.6596 80.345 22.6596C81.1427 22.6596 81.8089 22.4955 82.3618 22.1708C82.6849 21.9783 82.9796 21.7707 83.2361 21.5397L83.2627 22.4453H85.8091L88.1272 9.2356H85.2645L85.2628 9.23727ZM83.5292 18.6084C83.2894 19.0588 82.9713 19.427 82.5733 19.6899C82.1802 19.9594 81.7373 20.0849 81.2243 20.0849C80.6565 20.0849 80.2251 19.9092 79.9137 19.5409C79.5856 19.1625 79.4274 18.7005 79.4274 18.1347C79.4274 17.5689 79.5423 17.1018 79.7722 16.6733C80.002 16.2497 80.3184 15.9049 80.7114 15.6571C81.1044 15.4094 81.5591 15.2838 82.072 15.2838C82.6449 15.2838 83.0829 15.4429 83.4043 15.7777C83.7274 16.1125 83.8856 16.5461 83.8856 17.1068C83.8856 17.6676 83.7657 18.1498 83.5309 18.6068L83.5292 18.6084Z" fill="white"/>
<path d="M96.8469 14.5772C96.5189 13.9947 96.0442 13.5343 95.438 13.2045C94.8369 12.8747 94.1058 12.7107 93.2748 12.7107C92.4437 12.7107 91.636 12.8647 90.9249 13.1777C90.2138 13.4858 89.5976 13.9143 89.0831 14.4517C88.5701 14.984 88.1655 15.6151 87.8923 16.3182C87.6142 17.0263 87.4777 17.7847 87.4777 18.5698C87.4777 19.8102 87.8607 20.8163 88.6134 21.5512C89.3612 22.2878 90.3787 22.6611 91.6344 22.6611C92.3771 22.6611 93.0816 22.5238 93.7327 22.2443C94.3772 21.9647 94.9568 21.5847 95.448 21.1026C95.946 20.6255 96.344 20.0764 96.6338 19.4721L96.6887 19.3566H93.6994C93.5196 19.5876 93.2897 19.7801 93.0333 19.9391C92.7219 20.1266 92.3721 20.2137 91.9575 20.2137C91.4545 20.2137 91.0565 20.0714 90.7451 19.7751C90.4387 19.4838 90.2921 19.0887 90.2921 18.5564V18.5229H97.0018L97.0618 18.3304C97.1384 18.0943 97.2033 17.8081 97.2583 17.49C97.3132 17.1653 97.3449 16.8522 97.3449 16.5509C97.3449 15.8143 97.175 15.1564 96.8469 14.5789V14.5772ZM90.7334 16.5275C90.9349 16.1157 91.208 15.7976 91.5528 15.5766C91.9958 15.2853 92.4704 15.138 92.9683 15.138C93.4663 15.138 93.826 15.2703 94.1108 15.5381C94.3789 15.7792 94.5088 16.1039 94.5088 16.5258H90.7334V16.5275Z" fill="white"/>
<path d="M102.704 13.2481C102.291 13.474 101.916 13.7486 101.585 14.07L101.635 12.9266H99.0503L97.3899 22.4451H100.248L101.044 17.9688C101.197 17.1 101.518 16.5007 102.001 16.191C102.506 15.8662 103.122 15.7005 103.833 15.7005H104.691L105.219 12.7107H104.892C104.095 12.7107 103.359 12.8932 102.702 13.2497L102.704 13.2481Z" fill="white"/>
<path d="M110.754 12.3575C111.401 11.8988 112.147 11.6662 112.973 11.6662C113.729 11.6662 114.31 11.8386 114.701 12.1784C115.089 12.5149 115.287 12.9836 115.309 13.608L115.317 13.8725H118.412V13.5963C118.397 12.16 117.937 11.0233 117.041 10.2198C116.155 9.42464 114.906 9.01953 113.332 9.01953C112.243 9.01953 111.222 9.23213 110.296 9.64896C109.372 10.0675 108.556 10.6584 107.87 11.4033C107.184 12.15 106.641 13.0372 106.26 14.0416C105.878 15.0443 105.683 16.1425 105.683 17.3043C105.683 18.3589 105.897 19.2964 106.318 20.0915C106.743 20.895 107.365 21.5328 108.17 21.9848C108.971 22.4335 109.943 22.6611 111.064 22.6611C112.611 22.6611 113.972 22.2778 115.109 21.5211C116.252 20.7628 117.083 19.6847 117.581 18.3204L117.716 17.9521H114.588L114.518 18.1212C114.265 18.7289 113.88 19.2043 113.371 19.5341C112.861 19.8655 112.212 20.0329 111.442 20.0329C110.528 20.0329 109.842 19.7801 109.345 19.2579C108.853 18.7406 108.603 17.999 108.603 17.0515C108.603 16.0253 108.799 15.0912 109.187 14.276C109.572 13.4674 110.1 12.8212 110.753 12.3559L110.754 12.3575Z" fill="white"/>
<path d="M126.394 13.2514C125.761 12.8915 125.016 12.709 124.182 12.709C123.406 12.709 122.668 12.853 121.99 13.1375C121.311 13.4221 120.71 13.8289 120.2 14.3462C119.692 14.8635 119.291 15.4745 119.009 16.1608C118.726 16.8472 118.583 17.5988 118.583 18.3906C118.583 19.1824 118.761 19.9424 119.113 20.5769C119.464 21.2147 119.962 21.7269 120.588 22.1002C121.216 22.4736 121.952 22.6627 122.778 22.6627C123.604 22.6627 124.314 22.5154 124.998 22.2258C125.683 21.9345 126.287 21.5261 126.795 21.0088C127.303 20.4915 127.706 19.8822 127.996 19.1958C128.284 18.5078 128.43 17.7511 128.43 16.9459C128.43 16.1407 128.249 15.379 127.891 14.7479C127.533 14.1168 127.028 13.613 126.394 13.2514ZM123.085 20.1065C122.638 20.1065 122.269 19.9542 121.954 19.6428C121.639 19.3314 121.486 18.8928 121.486 18.3019C121.486 17.711 121.597 17.1903 121.819 16.73C122.037 16.2763 122.335 15.9131 122.708 15.6519C123.08 15.3924 123.479 15.2669 123.929 15.2669C124.379 15.2669 124.743 15.4192 125.06 15.7306C125.374 16.042 125.528 16.4806 125.528 17.0715C125.528 17.6624 125.416 18.183 125.195 18.6434C124.976 19.0987 124.678 19.462 124.312 19.7231C123.949 19.9809 123.546 20.1065 123.085 20.1065Z" fill="white"/>
<path d="M135.935 12.709C135.137 12.709 134.401 12.8915 133.745 13.248C133.332 13.474 132.957 13.7486 132.625 14.07L132.675 12.9266H130.091L128.43 22.4451H131.288L132.084 17.9688C132.237 17.0999 132.559 16.5006 133.042 16.191C133.546 15.8662 134.163 15.7005 134.874 15.7005H135.731L136.259 12.7107H135.933L135.935 12.709Z" fill="white"/>
<path d="M145.337 14.5772C145.009 13.9947 144.534 13.5343 143.928 13.2045C143.327 12.8747 142.596 12.7107 141.765 12.7107C140.934 12.7107 140.126 12.8647 139.415 13.1777C138.704 13.4858 138.088 13.9143 137.573 14.4517C137.06 14.984 136.656 15.6151 136.382 16.3182C136.104 17.0263 135.968 17.7847 135.968 18.5698C135.968 19.8102 136.351 20.8163 137.104 21.5512C137.851 22.2878 138.869 22.6611 140.124 22.6611C140.867 22.6611 141.572 22.5238 142.223 22.2443C142.867 21.9647 143.447 21.5847 143.938 21.1026C144.436 20.6255 144.834 20.0764 145.124 19.4721L145.179 19.3566H142.19C142.01 19.5876 141.78 19.7801 141.523 19.9391C141.212 20.1266 140.862 20.2137 140.448 20.2137C139.945 20.2137 139.547 20.0714 139.235 19.7751C138.929 19.4838 138.782 19.0887 138.782 18.5564V18.5229H145.492L145.552 18.3304C145.628 18.0943 145.693 17.8081 145.748 17.49C145.803 17.1653 145.835 16.8522 145.835 16.5509C145.835 15.8143 145.665 15.1564 145.337 14.5789V14.5772ZM139.224 16.5275C139.425 16.1157 139.698 15.7976 140.043 15.5766C140.486 15.2853 140.96 15.138 141.458 15.138C141.956 15.138 142.316 15.2703 142.601 15.5381C142.869 15.7792 142.999 16.1039 142.999 16.5258H139.224V16.5275Z" fill="white"/>
<path d="M146.23 12.6471H145.832V12.5032H146.801V12.6471H146.401V13.819H146.23V12.6471Z" fill="white"/>
<path d="M148.052 13.2415C148.042 13.0573 148.03 12.838 148.032 12.674H148.027C147.982 12.828 147.928 12.992 147.862 13.1745L147.63 13.8123H147.502L147.291 13.1862C147.229 13.0004 147.176 12.8313 147.139 12.674H147.136C147.132 12.838 147.122 13.059 147.111 13.2565L147.076 13.8207H146.914L147.006 12.5049H147.221L147.444 13.141C147.499 13.3034 147.542 13.4474 147.575 13.5846H147.58C147.614 13.4524 147.66 13.3067 147.719 13.141L147.952 12.5049H148.167L148.248 13.8207H148.083L148.05 13.2431L148.052 13.2415Z" fill="white"/>
<path d="M7.97033 15.6889C7.72386 16.084 8.0053 16.5979 8.46994 16.5979H15.2113C15.4328 16.5979 15.5693 16.8423 15.4511 17.0332L8.83632 27.6716C8.76804 27.7821 8.61982 27.8172 8.50991 27.7453C4.8428 25.3648 2.41638 21.2199 2.41638 16.5059C2.41638 9.26237 8.14353 3.36479 15.2912 3.13712C15.4761 3.13042 15.591 3.338 15.4944 3.49704L7.97033 15.6889ZM23.17 5.42384C23.0601 5.35018 22.9102 5.38366 22.8403 5.49582L16.3237 15.9769C16.2055 16.166 16.3404 16.4121 16.5619 16.4121H23.3032C23.7679 16.4121 24.0493 16.9244 23.8045 17.3211L16.1822 29.5783C16.1039 29.7039 16.1988 29.8713 16.3471 29.8646C23.4032 29.5365 29.0254 23.6807 29.0254 16.5059C29.0254 11.8956 26.7039 7.82941 23.1717 5.42551L23.17 5.42384Z" fill="url(#paint0_linear_196_1731)"/>
<defs>
<linearGradient id="paint0_linear_196_1731" x1="13.9023" y1="8.65302" x2="18.6232" y2="28.8292" gradientUnits="userSpaceOnUse">
<stop offset="0.18" stop-color="#00FFD5"/>
<stop offset="0.23" stop-color="#00F7D5"/>
<stop offset="0.31" stop-color="#00E3D5"/>
<stop offset="0.4" stop-color="#00C3D5"/>
<stop offset="0.51" stop-color="#0096D5"/>
<stop offset="0.62" stop-color="#005CD5"/>
<stop offset="0.74" stop-color="#0016D5"/>
<stop offset="0.78" stop-color="#0000D5"/>
</linearGradient>
</defs>
</svg>
